<svg width="115" height="21" viewBox="0 0 115 21" fill="none" xmlns="http://www.w3.org/2000/svg">
<path d="M61.3948 6.71802C58.3773 6.71802 56.2415 7.40955 55.0863 8.44684L55.3512 7.00435H51.5306L49.1611 20.0381H52.9817L54.4102 12.9067C54.861 10.4485 56.7798 8.50357 59.7325 8.11999C62.7839 7.7202 64.6604 9.63001 64.2237 12.0531L62.7614 20.0408H66.6242L68.0978 11.9477C68.6613 8.84123 65.6211 6.71802 61.3948 6.71802Z" fill="white"/>
<path d="M86.4052 3.04077L83.5877 18.4814L83.3003 20.0508H75.7916L75.8029 20.0373C71.2441 19.9482 67.7363 17.3414 68.1899 13.4516C68.6689 9.33479 73.0614 6.79558 77.344 6.8523H80.139L79.8714 8.15162H77.9752C74.0419 8.08679 72.0442 10.9799 72.0668 14.1944C72.0921 16.7552 74.1799 18.6705 76.9693 18.7839H79.784L82.6212 3.07319L86.4052 3.04077Z" fill="white"/>
<path d="M83.5995 18.4817L83.3008 20.0511L83.5882 18.4817H83.5995Z" fill="white"/>
<path d="M21.7792 3.03609L18.6826 20.038L22.4639 20.0029L25.5603 3.00098L21.7792 3.03609Z" fill="white"/>
<path d="M3.09076 3.53247L0 20.0401L3.78675 20.005L6.16748 6.32831L3.09076 3.53247Z" fill="white"/>
<path d="M114.713 8.2494L115 6.92307C113.969 6.89876 109.351 6.90146 108.221 6.90146C105.207 6.90146 103.353 8.95174 102.933 11.3586L101.417 20.0757H105.314L106.962 11.1884C107.385 8.75995 108.514 8.37096 110.83 8.27101C112.014 8.22239 113.518 8.22239 114.713 8.2494Z" fill="white"/>
<path d="M92.6911 12.7064H98.7037C99.1489 11.0775 98.498 8.19527 94.6887 8.17636C91.7754 8.16285 88.9917 10.3644 88.7466 14.2002C88.5832 16.7611 90.1919 18.7411 93.1475 18.7411H97.2554L97.0216 20.035H92.336C88.2112 20.1134 84.0075 17.3094 84.709 13.4493C85.374 9.79173 89.5721 6.82301 94.6578 6.86083C99.6758 6.89865 102.868 9.15963 102.282 13.5627C102.259 13.7329 102.257 13.7761 102.209 14.0058H92.4713L92.6911 12.7064Z" fill="white"/>
<path d="M40.2878 12.7095H46.3004C46.7455 11.0806 46.0947 8.19832 42.2854 8.17941C39.3721 8.16591 36.5884 10.3675 36.3432 14.2033C36.1798 16.7641 37.7887 18.7442 40.7443 18.7442H44.8523L44.6184 20.0381H39.9329C35.808 20.1164 31.6041 17.3125 32.3057 13.4523C32.9706 9.79478 37.1688 6.82606 42.2544 6.86388C47.2725 6.9017 50.4647 9.16268 49.8787 13.5658C49.8562 13.736 49.8506 13.7792 49.8055 14.0088H40.0681L40.2878 12.7095Z" fill="white"/>
<path d="M18.8017 17.5341C18.1678 19.506 14.7585 20.573 9.89263 20.103C8.04997 19.9193 6.09177 19.5303 4.81543 18.8199C4.81543 18.8199 5.15353 16.8263 5.16762 16.8155C6.06078 17.4341 8.5796 18.4471 10.3237 18.6983C13.3469 19.1332 14.9276 18.3904 14.5106 17.2612C14.0711 16.0646 10.1152 14.5302 9.42777 14.1872C6.29467 12.615 5.76771 11.0645 6.24951 9.59496C6.90881 7.63382 11.2958 6.35881 15.6263 6.98011C17.5507 7.25564 18.9257 7.82832 20.0809 8.60899L18.7313 9.90831C18.0156 9.38156 16.5618 8.48203 14.9276 8.25512C12.358 7.88775 10.1209 8.1957 9.97435 9.55715C9.82784 10.9024 13.4849 12.1882 15.2318 13.0958C18.0916 14.5734 19.2835 16.0781 18.8017 17.5341Z" fill="white"/>
<path d="M27.7467 11.8343C26.8732 12.3853 26.9605 13.528 27.7128 14.1655L33.9396 20.0381H29.2202L25.0193 16.2752C23.5654 14.9732 23.8416 12.6555 25.58 11.5777L33.1619 7.09351L35.4469 7.12593L27.7467 11.8343Z" fill="white"/>
<path d="M6.94244 1.53704L6.4861 4.33287L1.71307 0H5.5704C6.4213 0 7.07486 0.72935 6.94244 1.53704Z" fill="#DD0613"/>
</svg>
