<svg width="53" height="7" viewBox="0 0 53 7" fill="none" xmlns="http://www.w3.org/2000/svg">
<path d="M0.310547 4.92335L0.58666 4.6181C1.21497 5.17457 1.79257 5.43119 2.63501 5.43119C3.49154 5.43119 4.07762 4.96927 4.07762 4.32906C4.07762 3.75099 3.75925 3.41332 2.46318 3.1648C1.09104 2.90008 0.538784 2.45436 0.538784 1.60886C0.538784 0.795768 1.31368 0.169067 2.37307 0.169067C3.20424 0.169067 3.75358 0.38787 4.33117 0.833584L4.0607 1.15504C3.52255 0.709325 2.98446 0.536448 2.35615 0.536448C1.51652 0.536448 0.961414 0.998366 0.961414 1.58455C0.961414 2.16262 1.27139 2.51379 2.62662 2.78122C3.94804 3.04054 4.50314 3.49166 4.50314 4.30745C4.50314 5.19078 3.71136 5.80127 2.6097 5.80127C1.69964 5.79857 0.998025 5.50953 0.310547 4.92335Z" fill="white"/>
<path d="M5.30859 4.54779C5.30859 3.7185 6.05241 3.24847 7.12871 3.24847C7.7063 3.24847 8.10643 3.31871 8.50652 3.42136V3.24847C8.50652 2.44349 7.99363 2.02749 7.1371 2.02749C6.62995 2.02749 6.2158 2.15985 5.83262 2.34894L5.6861 2.01128C6.14254 1.80868 6.59059 1.66821 7.16255 1.66821C7.72606 1.66821 8.17396 1.81678 8.47543 2.10582C8.75155 2.37055 8.90095 2.74063 8.90095 3.23226V5.72016H8.50927V5.05564C8.2247 5.43922 7.70912 5.8147 6.9174 5.8147C6.13976 5.8147 5.30859 5.3933 5.30859 4.54779ZM8.51492 4.22634V3.77252C8.16272 3.68608 7.70071 3.59153 7.1034 3.59153C6.22151 3.59153 5.73398 3.96701 5.73398 4.53699C5.73398 5.11506 6.30601 5.45273 6.93996 5.45273C7.78804 5.45543 8.51492 4.95569 8.51492 4.22634Z" fill="white"/>
<path d="M10.1738 1.73285H10.5739V2.47571C10.85 2.00568 11.3149 1.63831 12.0757 1.63831C13.1266 1.63831 13.7409 2.32714 13.7409 3.28069V5.71996H13.3407V3.35093C13.3407 2.52973 12.8589 1.98947 12.0193 1.98947C11.2022 1.98947 10.5766 2.58376 10.5766 3.41306V5.71996H10.1766V1.73285H10.1738Z" fill="white"/>
<path d="M15.0234 0.169067H15.5193V0.693119H15.0234V0.169067ZM15.0713 1.73312H15.4714V5.72293H15.0713V1.73312Z" fill="white"/>
<path d="M17.1059 4.69646V2.08431H16.5029V1.73314H17.1059V0.45813H17.506V1.73314H18.9654V2.08431H17.506V4.65864C17.506 5.22861 17.8581 5.43391 18.3371 5.43391C18.5399 5.43391 18.7119 5.39609 18.9486 5.29345V5.65272C18.7373 5.74726 18.5315 5.79319 18.2723 5.79319C17.6271 5.79319 17.1059 5.45553 17.1059 4.69646Z" fill="white"/>
<path d="M19.6445 4.54779C19.6445 3.7185 20.3883 3.24847 21.4646 3.24847C22.0422 3.24847 22.4424 3.31871 22.8425 3.42136V3.24847C22.8425 2.44349 22.3297 2.02749 21.4732 2.02749C20.966 2.02749 20.5517 2.15985 20.1686 2.34894L20.022 2.01128C20.4785 1.80868 20.9265 1.66821 21.4985 1.66821C22.062 1.66821 22.51 1.81678 22.8115 2.10582C23.0876 2.37055 23.2369 2.74063 23.2369 3.23226V5.72016H22.8452V5.05564C22.5606 5.43922 22.0451 5.8147 21.2533 5.8147C20.4785 5.8147 19.6445 5.3933 19.6445 4.54779ZM22.8509 4.22634V3.77252C22.4987 3.68608 22.0367 3.59153 21.4393 3.59153C20.5574 3.59153 20.0701 3.96701 20.0701 4.53699C20.0701 5.11506 20.6419 5.45273 21.2759 5.45273C22.124 5.45543 22.8509 4.95569 22.8509 4.22634Z" fill="white"/>
<path d="M24.5137 1.73386H24.9137V2.8684C25.2406 2.15796 25.9337 1.63931 26.7564 1.67173V2.09313H26.7169C25.7533 2.09313 24.9137 2.79006 24.9137 4.08669V5.72097H24.5137V1.73386Z" fill="white"/>
<path d="M27.297 6.8252L27.435 6.49024C27.6547 6.59289 27.8351 6.63881 28.145 6.63881C28.5789 6.63881 28.8634 6.39569 29.1734 5.70146L27.1758 1.73596H27.6406L29.3707 5.30167L30.8724 1.73596H31.312L29.5088 5.86624C29.1425 6.70364 28.7169 7.00079 28.1224 7.00079C27.8012 6.99539 27.5731 6.94136 27.297 6.8252Z" fill="white"/>
<path d="M34.1777 1.73325H34.6257L35.8823 5.23683L37.1389 1.71704H37.4574L38.714 5.23683L39.9706 1.73325H40.4045L38.8802 5.75278H38.5365L37.2967 2.33564L36.0486 5.75278H35.7077L34.1777 1.73325Z" fill="white"/>
<path d="M40.8975 4.54779C40.8975 3.7185 41.6413 3.24847 42.7176 3.24847C43.2952 3.24847 43.6953 3.31871 44.0954 3.42136V3.24847C44.0954 2.44349 43.5825 2.02749 42.726 2.02749C42.2188 2.02749 41.8047 2.15985 41.4215 2.34894L41.275 2.01128C41.7314 1.80868 42.1795 1.66821 42.7514 1.66821C43.3149 1.66821 43.7628 1.81678 44.0643 2.10582C44.3404 2.37055 44.4898 2.74063 44.4898 3.23226V5.72016H44.0981V5.05564C43.8136 5.43922 43.298 5.8147 42.5063 5.8147C41.7314 5.8147 40.8975 5.3933 40.8975 4.54779ZM44.1038 4.22634V3.77252C43.7516 3.68608 43.2896 3.59153 42.6923 3.59153C41.8104 3.59153 41.3228 3.96701 41.3228 4.53699C41.3228 5.11506 41.8949 5.45273 42.5288 5.45273C43.3769 5.45543 44.1038 4.95569 44.1038 4.22634Z" fill="white"/>
<path d="M45.7627 1.73386H46.1628V2.8684C46.4896 2.15796 47.1827 1.63931 48.0054 1.67173V2.09313H47.966C47.0024 2.09313 46.1628 2.79006 46.1628 4.08669V5.72097H45.7627V1.73386Z" fill="white"/>
<path d="M48.3779 3.7183C48.3779 2.56215 49.2261 1.63831 50.3531 1.63831C51.5196 1.63831 52.2606 2.54594 52.2606 3.72641C52.2606 3.79664 52.2605 3.82095 52.252 3.88308H48.8006C48.8738 4.87716 49.6177 5.45524 50.4319 5.45524C51.0771 5.45524 51.5166 5.1824 51.8604 4.82853L52.1365 5.06355C51.7138 5.50116 51.2152 5.81451 50.415 5.81451C49.3218 5.81451 48.3779 4.97711 48.3779 3.7183ZM51.8267 3.54002C51.7703 2.73503 51.2884 1.99217 50.3333 1.99217C49.5077 1.99217 48.8739 2.65669 48.7978 3.54002H51.8267Z" fill="white"/>
</svg>
